<svg width="360" height="360" fill="none" xmlns="http://www.w3.org/2000/svg"><path fill="#000" d="M210 110h20v40h-20zM170 70h20v20h-20zM150 190h20v20h-20zM270 250h20v20h-20zM130 210h20v20h-20zM290 110h20v40h-20zM110 230h20v40h-20zM50 90h20v40H50zM150 90h20v40h-20zM30 250h20v40H30zM10 150h20v100H10zM90 250h20v80H90zM110 330v-20h100v20zM50 270h40v20H50zM30 190h40v20H30zM70 170h40v20H70zM70 70h40v20H70zM110 90h40v20h-40zM30 150h40v20H30zM50 130h40v20H50z"/><path fill="#FE7F07" d="M250 130h40v20h-40zM310 170h20v40h-20zM210 310h20v40h-20zM290 150h20v20h-20zM290 290h20v20h-20zM250 270h40v20h-40zM210 290h40v20h-40zM230 330h40v20h-40zM50 310h40v20H50zM270 310h20v20h-20zM70 290h20v20H70zM30 290h20v20H30z"/><path fill="#FF9204" d="M50 290h20v20H50z"/><path fill="#FE7F07" d="M230 150h20v20h-20zM250 170h20v20h-20zM270 190h40v20h-40z"/><path fill="#FF9204" d="M270 170h40v20h-40zM250 290h40v20h-40zM250 150h40v20h-40zM230 310h40v20h-40z"/><path fill="#710F04" d="M290 210h20v20h-20z"/><path fill="#FD2703" d="M270 210h20v20h-20zM250 190h20v40h-20zM270 50h20v40h-20zM250 30h20v40h-20zM210 30h40v20h-40z"/><path fill="#710F04" d="M210 10h60v20h-60zM190 50h60v20h-60zM190 30h20v20h-20zM270 30h20v20h-20zM290 50h20v40h-20zM270 90h40v20h-40zM250 70h20v20h-20zM250 230h40v20h-40zM230 190h20v40h-20z"/><path fill="#fff" d="M230 70h20v20h-20zM230 130h20v20h-20zM170 190h40v20h-40zM30 170h40v20H30zM150 270h40v20h-40zM70 190h60v20H70zM50 210h60v20H50zM150 210h60v20h-60zM150 230h80v40h-80zM190 110h20v20h-20zM90 90h20v20H90zM50 230h20v20H50zM110 110h40v20h-40zM130 130h80v20h-80zM110 150h120v20H110zM110 170h120v20H110zM190 90h80v20h-80zM230 110h60v20h-60z"/><path fill="#DFDDDE" d="M190 70h40v20h-40zM110 130h20v20h-20zM70 150h40v20H70zM50 250h40v20H50zM70 230h40v20H70zM190 270h40v20h-40zM110 270h40v20h-40zM110 290h100v20H110zM30 210h20v40H30zM130 230h20v40h-20zM110 210h20v20h-20zM130 190h20v20h-20zM70 90h20v40H70zM90 110h20v40H90z"/><path fill="#DFDDDE" d="M70 150h40v20H70zM170 90h20v40h-20zM230 170h20v20h-20zM250 250h20v20h-20zM210 190h20v40h-20zM230 230h20v60h-20z"/></svg>